<?xml version="1.0" encoding="UTF-8"?>
<!--Generator: Apple Native CoreSVG 360-->
<!DOCTYPE svg
PUBLIC "-//W3C//DTD SVG 1.1//EN"
       "http://www.w3.org/Graphics/SVG/1.1/DTD/svg11.dtd">
<svg version="1.1" xmlns="http://www.w3.org/2000/svg" xmlns:xlink="http://www.w3.org/1999/xlink" viewBox="0 0 123.535 72.3145">
 <defs>
  <linearGradient id="gradient1" x1="5" x2="5" y2="72.2656" gradientUnits="userSpaceOnUse">
   <stop offset="0" stop-color="white" stop-opacity="1"/>
   <stop offset="1" stop-color="#e2e2e2" stop-opacity="1"/>
  </linearGradient>
 </defs>
 <g>
  <rect height="72.3145" opacity="0" width="123.535" x="0" y="0"/>
  <path d="M6.93359 61.4746C10.8887 61.4746 13.916 58.4473 13.916 54.5898L13.916 17.6758C13.916 13.7695 10.8887 10.6934 6.93359 10.6934C3.02734 10.6934 0 13.7695 0 17.6758L0 54.5898C0 58.4473 3.02734 61.4746 6.93359 61.4746ZM30.127 72.2656C36.6211 72.2656 41.1621 67.9199 41.1621 61.7676L41.1621 10.5469C41.1621 4.3457 36.6211 0 30.127 0C23.6816 0 19.1406 4.3457 19.1406 10.5469L19.1406 61.7676C19.1406 67.9199 23.6816 72.2656 30.127 72.2656ZM46.8262 45.5566L77.1484 45.5566L77.1484 26.709L46.8262 26.709ZM93.8477 72.2656C100.342 72.2656 104.883 67.9199 104.883 61.7676L104.883 10.5469C104.883 4.3457 100.342 0 93.8477 0C87.4023 0 82.8613 4.3457 82.8613 10.5469L82.8613 61.7676C82.8613 67.9199 87.4023 72.2656 93.8477 72.2656ZM116.553 61.4746C120.459 61.4746 123.535 58.4473 123.535 54.5898L123.535 17.6758C123.535 13.7695 120.459 10.6934 116.553 10.6934C112.646 10.6934 109.619 13.7695 109.619 17.6758L109.619 54.5898C109.619 58.4473 112.646 61.4746 116.553 61.4746Z" fill="url(#gradient1)"/>
 </g>
</svg>
